<svg viewBox="0 0 512.00118 512" xmlns="http://www.w3.org/2000/svg"><path d="m367 162.101562c0 9.441407-7.65625 17.097657-17.101562 17.097657-9.441407 0-17.097657-7.65625-17.097657-17.097657 0-9.445312 7.65625-17.101562 17.097657-17.101562 9.445312 0 17.101562 7.65625 17.101562 17.101562zm0 0" fill="#805333"/><path d="m409.601562 145.101562c0 9.441407-7.65625 17.097657-17.101562 17.097657s-17.101562-7.65625-17.101562-17.097657c0-9.445312 7.65625-17.101562 17.101562-17.101562s17.101562 7.65625 17.101562 17.101562zm0 0" fill="#805333"/><path d="m259.898438 232c-2.5 0-4.796876-1.097656-6.398438-2.898438-1.601562-1.902343-2.398438-4.300781-2-6.800781 15.800781-118.800781 110.5-131.601562 111.398438-131.699219 4.703124-.601562 8.902343 2.800782 9.5 7.398438.601562 4.601562-2.796876 8.902344-7.398438 9.5-3.300781.402344-82.601562 11.699219-96.601562 117.101562-.597657 4.300782-4.199219 7.398438-8.5 7.398438zm0 0" fill="#4c8056"/><path d="m236.199219 155.5c-.699219 0-1.398438-.097656-2-.199219-2.199219-.5-4.097657-1.898437-5.300781-3.898437-1.199219-1.902344-1.5-4.300782-1-6.5.5-2.203125 13.703124-54.101563 54.5-70.203125 24.902343-9.796875 53.902343-4 86.203124 17.101562 2.699219 1.601563 4.296876 4.601563 4.199219 7.699219-.101562 3.101562-2 5.902344-4.800781 7.300781-2.800781 1.398438-6.199219 1.101563-8.699219-.699219-27.402343-17.902343-51.199219-23.199218-70.601562-15.5-32.699219 12.898438-44 57.898438-44.097657 58.398438-1 3.800781-4.402343 6.5-8.402343 6.5zm0 0" fill="#4c8056"/><path d="m489 186.199219c-3.601562 0-6.800781-2.296875-8-5.699219-1.398438-3.898438-34.398438-94.398438-114.800781-73.199219-3 .800781-6.097657 0-8.300781-2.199219-2.199219-2.199218-3-5.300781-2.199219-8.300781s3.199219-5.300781 6.101562-6c95.699219-25.101562 134.800781 83 135.199219 84.101563 1.601562 4.398437-.800781 9.296875-5.199219 10.898437-.902343.300781-1.902343.398438-2.800781.398438zm0 0" fill="#4c8056"/><path d="m363.898438 107.601562c-3.097657 0-5.898438-1.699218-7.398438-4.300781-1.5-2.601562-1.5-6 .101562-8.601562 16-26.597657 36-41.398438 59.597657-44 44-4.796875 83.300781 35.601562 84.902343 37.402343 2.097657 2.199219 2.898438 5.398438 2 8.300782-.902343 2.898437-3.203124 5.199218-6.203124 5.898437s-6.097657-.199219-8.199219-2.398437c-.300781-.402344-35.097657-36.101563-70.800781-32.203125-17.898438 2-33.699219 14.101562-46.699219 35.800781-1.5 2.5-4.300781 4.101562-7.300781 4.101562zm0 0" fill="#4c8056"/><path d="m363.898438 107.601562c-2.898438 0-5.597657-1.5-7.199219-4-44.5-69.902343-111.300781-39.199218-114.097657-37.800781-4.300781 2-9.300781.199219-11.402343-4-2-4.300781-.199219-9.300781 4-11.398437.902343-.402344 83.402343-38.402344 135.902343 44.097656 1.699219 2.601562 1.796876 6 .296876 8.699219-1.5 2.703125-4.398438 4.402343-7.5 4.402343zm0 0" fill="#4c8056"/><path d="m363.898438 107.601562c-4.296876 0-7.898438-3.199218-8.5-7.5-9.699219-80.199218-75.699219-82.902343-78.5-83-4.699219-.101562-8.398438-4-8.296876-8.699218.199219-4.601563 4-8.300782 8.699219-8.300782 37.800781 2.699219 70.898438 26.398438 85.699219 61.300782 10.199219-28.300782 32.398438-50.601563 60.699219-60.703125 2.902343-1.199219 6.199219-.699219 8.601562 1.203125 2.398438 2 3.597657 5.097656 3.097657 8.199218-.5 3.097657-2.699219 5.597657-5.699219 6.597657-57.597657 21.601562-57.199219 81.800781-57.199219 82.402343.101562 4.5-3.398438 8.300782-7.898438 8.699219-.300781-.199219-.5-.199219-.703124-.199219zm0 0" fill="#4c8056"/><path d="m435.199219 512h-.199219c-4.898438-.300781-8.601562-4.597656-8.300781-9.5.199219-9.5.800781-22.097656 1.5-36.699219 1.199219-25.601562 2.601562-57.5 2.902343-89.699219-.101562-4.902343 3.699219-9 8.5-9.199218h.097657c4.902343.296875 8.699219 4.398437 8.5 9.398437-.300781 32.601563-1.699219 64.699219-2.898438 90.5-.601562 14.398438-1.199219 26.800781-1.402343 36.300781-.097657 4.699219-3.898438 8.699219-8.699219 8.898438zm0 0" fill="#cb8252"/><path d="m439.300781 359.101562c-4.601562 0-8.402343-3.699218-8.5-8.300781-1.101562-38.300781-5.199219-66.199219-12-83.101562-9.402343-23.5-20.902343-46-34.5-67.296875-16.199219-26.300782-26.902343-43.601563-28.902343-101.101563-.199219-4.699219 3.5-8.699219 8.203124-8.800781 4.699219-.199219 8.699219 3.5 8.796876 8.199219 1.800781 52.902343 10.5 67.101562 26.300781 92.703125 14.101562 22.097656 26.101562 45.5 35.800781 69.898437 7.699219 19 12 48.101563 13.300781 89 .097657 4.699219-3.601562 8.601563-8.300781 8.800781zm0 0" fill="#cb8252"/><path d="m153.601562 102.402344c0 23.582031-19.117187 42.699218-42.703124 42.699218-23.582032 0-42.699219-19.117187-42.699219-42.699218 0-23.585938 19.117187-42.703125 42.699219-42.703125 23.585937 0 42.703124 19.117187 42.703124 42.703125zm0 0" fill="#f0c419"/><g fill="#f29c1f"><path d="m110.898438 204.800781c-4.699219 0-8.5-3.800781-8.5-8.5v-17.101562c0-4.699219 3.800781-8.5 8.5-8.5 4.703124 0 8.5 3.800781 8.5 8.5v17.101562c.101562 4.699219-3.796876 8.5-8.5 8.5zm0 0"/><path d="m110.898438 34.101562c-4.699219 0-8.5-3.800781-8.5-8.5v-17.101562c0-4.699219 3.800781-8.5 8.5-8.5 4.703124 0 8.5 3.800781 8.5 8.5v17.101562c.101562 4.699219-3.796876 8.5-8.5 8.5zm0 0"/><path d="m34.101562 110.902344h-17c-4.703124 0-8.5-3.800782-8.5-8.5 0-4.703125 3.796876-8.5 8.5-8.5h17.097657c4.699219 0 8.5 3.796875 8.5 8.5 0 4.699218-3.898438 8.5-8.597657 8.5zm0 0"/><path d="m204.800781 110.902344h-17.101562c-4.699219 0-8.5-3.800782-8.5-8.5 0-4.703125 3.800781-8.5 8.5-8.5h17.101562c4.699219 0 8.5 3.796875 8.5 8.5 0 4.699218-3.800781 8.5-8.5 8.5zm0 0"/><path d="m44.601562 177.300781c-3.5 0-6.601562-2.101562-7.902343-5.300781s-.597657-6.898438 1.800781-9.300781l12.101562-12.097657c3.296876-3.199218 8.699219-3.199218 12 .097657 3.296876 3.300781 3.296876 8.601562.097657 12l-12.097657 12.101562c-1.601562 1.601563-3.800781 2.5-6 2.5zm0 0"/><path d="m165.199219 56.601562c-3.5 0-6.597657-2.101562-7.898438-5.300781s-.601562-6.898437 1.800781-9.300781l12.199219-12c3.300781-3.199219 8.699219-3.199219 12 .101562 3.300781 3.300782 3.300781 8.597657.097657 12l-12.097657 12.097657c-1.601562 1.5-3.800781 2.402343-6.101562 2.402343zm0 0"/><path d="m56.601562 56.601562c-2.300781 0-4.402343-.902343-6-2.5l-12.101562-12c-3.199219-3.300781-3.199219-8.699218.101562-12 3.296876-3.300781 8.597657-3.300781 12-.101562l12.097657 12.101562c2.402343 2.398438 3.199219 6.097657 1.800781 9.300782-1.300781 3.097656-4.398438 5.199218-7.898438 5.199218zm0 0"/><path d="m177.300781 177.300781c-2.300781 0-4.402343-.898437-6-2.5l-12.101562-12.101562c-3.199219-3.296875-3.199219-8.699219.101562-12 3.300781-3.296875 8.597657-3.296875 12-.097657l12.097657 12.097657c2.402343 2.402343 3.203124 6.101562 1.800781 9.300781-1.300781 3.199219-4.398438 5.300781-7.898438 5.300781zm0 0"/></g><path d="m494.300781 317.199219c-16.800781 43.101562-72.601562 108.300781-196.199219 122.902343l.5-64.601562v-1.300781c12.5-.5 24.5-1.296875 36-2.398438 21.097657-2 42-5.199219 62.597657-9.699219 54.199219-11.800781 89.601562-29.601562 97.101562-44.902343zm0 0" fill="#d25627"/><path d="m264.398438 374.699219-.398438 67.902343-8 .300782c-154.800781-3.203125-221.101562-79.402344-238.898438-127.101563 4.398438 11.699219 25.898438 25.199219 60.199219 36.398438 12.398438 4 25 7.402343 37.800781 10.101562 22.097657 4.699219 44.398438 8.101563 66.898438 10.101563 11.300781 1 23 1.699218 35 2.097656h.101562c12.597657.402344 25.597657.601562 39 .300781 2.699219-.101562 5.5-.101562 8.296876-.101562zm0 0" fill="#d25627"/><path d="m401.101562 345.601562c0 5.699219-1.300781 11.300782-3.800781 16.5-20.699219 4.5-41.601562 7.800782-62.601562 9.699219-6.699219-7.101562-10.398438-16.5-10.398438-26.199219 0-21.199218 17.199219-38.402343 38.398438-38.402343s38.402343 17.203125 38.402343 38.402343zm0 0" fill="#fb7b76"/><path d="m217.300781 362.800781-.300781 11.5h-.101562c-12-.398437-23.699219-1.101562-35-2.101562l-26.796876-37c-1.5-2-3.800781-3.296875-6.300781-3.5-2.5-.199219-5 .800781-6.699219 2.601562l-27.101562 27.898438c-12.800781-2.699219-25.398438-6.097657-37.800781-10.097657l47.402343-48.902343c7-7.296875 16.898438-11 26.898438-10.296875 10.101562.699218 19.300781 5.898437 25.199219 14.097656zm0 0" fill="#ff5364"/><path d="m298.699219 366.902344v8.5l-.5 64.597656.300781 20.5c.101562 9.402344-7.398438 17.199219-16.800781 17.300781-9.398438.101563-17.199219-7.398437-17.300781-16.800781l-.296876-18.398438.398438-67.902343c-2.800781 0-5.601562 0-8.398438-.097657-13.402343.300782-26.402343.199219-39-.300781l.296876-11.5 42.402343-22c16.898438-8.800781 38.898438.5 38.898438 26.101563zm0 0" fill="#fb7b76"/><path d="m51.199219 512c-4.097657 0-7.597657-2.898438-8.398438-7l-42.601562-230.398438c-.597657-3 .402343-6.199218 2.800781-8.199218 2.300781-2 5.601562-2.601563 8.5-1.601563s5 3.601563 5.5 6.699219l42.699219 230.402344c.902343 4.597656-2.199219 9.097656-6.800781 9.898437-.597657.199219-1.199219.199219-1.699219.199219zm0 0" fill="#cb8252"/><path d="m503.5 512h-495c-4.699219 0-8.5-3.800781-8.5-8.5s3.800781-8.5 8.5-8.5h494.898438c4.703124 0 8.5 3.800781 8.5 8.5.101562 4.699219-3.699219 8.5-8.398438 8.5zm0 0" fill="#f3d55b"/><path d="m460.800781 512c-.5 0-1.101562 0-1.601562-.097656-4.597657-.902344-7.699219-5.300782-6.800781-9.902344l42.703124-230.398438c1-4.5 5.296876-7.5 9.898438-6.601562 4.601562.800781 7.601562 5.199219 6.898438 9.699219l-42.699219 230.300781c-.800781 4.101562-4.300781 7-8.398438 7zm0 0" fill="#cb8252"/></svg>